<svg xmlns="http://www.w3.org/2000/svg" width="16" height="16" fill="currentColor" class="bi bi-shield-fill-check" viewBox="0 0 16 16">
    <path fill-rule="evenodd" d="M8 0c-.69 0-1.843.265-2.928.56-1.11.3-2.229.655-2.887.87a1.54 1.54 0 0 0-1.044 1.262c-.596 4.477.787 7.795 2.465 9.99a11.777 11.777 0 0 0 2.517 2.453c.386.273.744.482 1.048.625.28.132.581.24.829.24s.548-.108.829-.24a7.159 7.159 0 0 0 1.048-.625 11.775 11.775 0 0 0 2.517-2.453c1.678-2.195 3.061-5.513 2.465-9.99a1.541 1.541 0 0 0-1.044-1.263 62.467 62.467 0 0 0-2.887-.87C9.843.266 8.69 0 8 0zm2.146 5.146a.5.5 0 0 1 .708.708l-3 3a.5.5 0 0 1-.708 0l-1.5-1.5a.5.5 0 1 1 .708-.708L7.5 7.793l2.646-2.647z"/>
  </svg>

  <svg xmlns="http://www.w3.org/2000/svg" width="16" height="16" fill="currentColor" class="bi bi-chat-dots-fill" viewBox="0 0 16 16">
    <path d="M16 8c0 3.866-3.582 7-8 7a9.06 9.06 0 0 1-2.347-.306c-.584.296-1.925.864-4.181 1.234-.2.032-.352-.176-.273-.362.354-.836.674-1.95.77-2.966C.744 11.37 0 9.76 0 8c0-3.866 3.582-7 8-7s8 3.134 8 7zM5 8a1 1 0 1 0-2 0 1 1 0 0 0 2 0zm4 0a1 1 0 1 0-2 0 1 1 0 0 0 2 0zm3 1a1 1 0 1 0 0-2 1 1 0 0 0 0 2z"/>
  </svg>

  <svg xmlns="http://www.w3.org/2000/svg" width="16" height="16" fill="currentColor" class="bi bi-globe" viewBox="0 0 16 16">
    <path d="M0 8a8 8 0 1 1 16 0A8 8 0 0 1 0 8zm7.5-6.923c-.67.204-1.335.82-1.887 1.855A7.97 7.97 0 0 0 5.145 4H7.5V1.077zM4.09 4a9.267 9.267 0 0 1 .64-1.539 6.7 6.7 0 0 1 .597-.933A7.025 7.025 0 0 0 2.255 4H4.09zm-.582 3.5c.03-.877.138-1.718.312-2.5H1.674a6.958 6.958 0 0 0-.656 2.5h2.49zM4.847 5a12.5 12.5 0 0 0-.338 2.5H7.5V5H4.847zM8.5 5v2.5h2.99a12.495 12.495 0 0 0-.337-2.5H8.5zM4.51 8.5a12.5 12.5 0 0 0 .337 2.5H7.5V8.5H4.51zm3.99 0V11h2.653c.187-.765.306-1.608.338-2.5H8.5zM5.145 12c.138.386.295.744.468 1.068.552 1.035 1.218 1.65 1.887 1.855V12H5.145zm.182 2.472a6.696 6.696 0 0 1-.597-.933A9.268 9.268 0 0 1 4.09 12H2.255a7.024 7.024 0 0 0 3.072 2.472zM3.82 11a13.652 13.652 0 0 1-.312-2.5h-2.49c.062.89.291 1.733.656 2.5H3.82zm6.853 3.472A7.024 7.024 0 0 0 13.745 12H11.91a9.27 9.27 0 0 1-.64 1.539 6.688 6.688 0 0 1-.597.933zM8.5 12v2.923c.67-.204 1.335-.82 1.887-1.855.173-.324.33-.682.468-1.068H8.5zm3.68-1h2.146c.365-.767.594-1.61.656-2.5h-2.49a13.65 13.65 0 0 1-.312 2.5zm2.802-3.5a6.959 6.959 0 0 0-.656-2.5H12.18c.174.782.282 1.623.312 2.5h2.49zM11.27 2.461c.247.464.462.98.64 1.539h1.835a7.024 7.024 0 0 0-3.072-2.472c.218.284.418.598.597.933zM10.855 4a7.966 7.966 0 0 0-.468-1.068C9.835 1.897 9.17 1.282 8.5 1.077V4h2.355z"/>
  </svg>

  <svg xmlns="http://www.w3.org/2000/svg" width="16" height="16" fill="currentColor" class="bi bi-pc-display" viewBox="0 0 16 16">
    <path d="M8 1a1 1 0 0 1 1-1h6a1 1 0 0 1 1 1v14a1 1 0 0 1-1 1H9a1 1 0 0 1-1-1V1Zm1 13.5a.5.5 0 1 0 1 0 .5.5 0 0 0-1 0Zm2 0a.5.5 0 1 0 1 0 .5.5 0 0 0-1 0ZM9.5 1a.5.5 0 0 0 0 1h5a.5.5 0 0 0 0-1h-5ZM9 3.5a.5.5 0 0 0 .5.5h5a.5.5 0 0 0 0-1h-5a.5.5 0 0 0-.5.5ZM1.5 2A1.5 1.5 0 0 0 0 3.5v7A1.5 1.5 0 0 0 1.5 12H6v2h-.5a.5.5 0 0 0 0 1H7v-4H1.5a.5.5 0 0 1-.5-.5v-7a.5.5 0 0 1 .5-.5H7V2H1.5Z"/>
  </svg>