<svg width="24" height="24" viewBox="0 0 24 24" fill="none" xmlns="http://www.w3.org/2000/svg">
<path fill-rule="evenodd" clip-rule="evenodd" d="M3 5C1.89543 5 1 5.89543 1 7V16.4444C1 17.549 1.89543 18.4444 3 18.4444H21C22.1046 18.4444 23 17.549 23 16.4444V7C23 5.89543 22.1046 5 21 5H3ZM5.79821 9.97602L6.98701 13.4959L8.17939 9.95096C8.24146 9.76476 8.28801 9.63526 8.31904 9.56245C8.35007 9.48964 8.40139 9.424 8.47301 9.36551C8.54463 9.30702 8.6425 9.27778 8.76663 9.27778C8.85734 9.27778 8.94149 9.30046 9.01907 9.34582C9.09665 9.39117 9.15753 9.45145 9.20169 9.52664C9.24585 9.60184 9.26793 9.67763 9.26793 9.75402C9.26793 9.80654 9.26077 9.86323 9.24645 9.9241C9.23212 9.98498 9.21422 10.0447 9.19274 10.1031C9.17125 10.1616 9.14977 10.2219 9.12828 10.284L7.85712 13.7143C7.81177 13.8456 7.76641 13.9703 7.72106 14.0885C7.6757 14.2067 7.62318 14.3105 7.5635 14.4C7.50383 14.4895 7.42445 14.5629 7.32539 14.6202C7.22632 14.6775 7.10517 14.7062 6.96194 14.7062C6.81871 14.7062 6.69757 14.6781 6.5985 14.622C6.49943 14.5659 6.41946 14.4919 6.35859 14.4C6.29772 14.3081 6.2446 14.2037 6.19925 14.0867C6.15389 13.9697 6.10854 13.8456 6.06318 13.7143L4.8135 10.3126C4.79202 10.2505 4.76994 10.1897 4.74726 10.13C4.72458 10.0703 4.70549 10.0059 4.68997 9.93664C4.67445 9.86741 4.66669 9.80892 4.66669 9.76118C4.66669 9.63944 4.71563 9.52843 4.8135 9.42817C4.91138 9.32791 5.03432 9.27778 5.18232 9.27778C5.36374 9.27778 5.49205 9.33328 5.56725 9.44429C5.64244 9.55529 5.71943 9.73253 5.79821 9.97602ZM11.8594 12.5721H10.8854V14.0581C10.8854 14.2705 10.8353 14.4316 10.735 14.5415C10.6348 14.6513 10.5083 14.7062 10.3555 14.7062C10.1955 14.7062 10.0666 14.6519 9.96876 14.5432C9.87088 14.4346 9.82195 14.2753 9.82195 14.0652V10.019C9.82195 9.78505 9.87566 9.61795 9.98308 9.51769C10.0905 9.41743 10.2612 9.3673 10.4951 9.3673H11.8594C12.2628 9.3673 12.5731 9.39833 12.7904 9.4604C13.0052 9.52008 13.1908 9.61914 13.3472 9.7576C13.5035 9.89605 13.6223 10.0655 13.7035 10.2661C13.7846 10.4666 13.8252 10.6922 13.8252 10.9428C13.8252 11.4775 13.6605 11.8828 13.3311 12.1585C13.0016 12.4342 12.5111 12.5721 11.8594 12.5721ZM10.8854 10.1658H11.6016C12.0766 10.1658 12.3905 10.2434 12.5433 10.3986C12.6794 10.5442 12.7474 10.7328 12.7474 10.9643C12.7474 11.1577 12.7032 11.314 12.6149 11.4334C12.5266 11.5528 12.3983 11.6387 12.23 11.6912C12.0617 11.7437 11.8522 11.77 11.6016 11.77H10.8854V10.1658ZM15.8546 9.91516L17.8991 13.0089V9.88652C17.8991 9.68361 17.9427 9.53143 18.0298 9.42998C18.117 9.32852 18.2345 9.27779 18.3825 9.27779C18.5353 9.27779 18.6559 9.32852 18.7442 9.42998C18.8325 9.53143 18.8767 9.68361 18.8767 9.88652V14.0151C18.8767 14.4758 18.6857 14.7062 18.3038 14.7062C18.2083 14.7062 18.1223 14.6925 18.046 14.665C17.9696 14.6375 17.898 14.594 17.8311 14.5343C17.7643 14.4746 17.7022 14.4048 17.6449 14.3248C17.5876 14.2449 17.5303 14.1631 17.473 14.0796L15.4786 11.0216V14.0975C15.4786 14.298 15.432 14.4496 15.3389 14.5522C15.2458 14.6549 15.1265 14.7062 14.9809 14.7062C14.8305 14.7062 14.7099 14.6543 14.6192 14.5504C14.5285 14.4466 14.4831 14.2956 14.4831 14.0975V10.0477C14.4831 9.87577 14.5022 9.7409 14.5404 9.64303C14.5858 9.53561 14.661 9.44788 14.766 9.37984C14.871 9.31181 14.9844 9.27779 15.1062 9.27779C15.2017 9.27779 15.2834 9.29331 15.3515 9.32434C15.4195 9.35538 15.4792 9.39715 15.5305 9.44967C15.5818 9.50219 15.6343 9.57022 15.688 9.65377C15.7418 9.73732 15.7973 9.82445 15.8546 9.91516Z" fill="black"/>
</svg>
